<mxfile host="app.diagrams.net" modified="2023-04-18T07:39:03.330Z" agent="Mozilla/5.0 (Windows NT 10.0; WOW64) AppleWebKit/537.36 (KHTML, like Gecko) Chrome/103.0.0.0 Safari/537.36" version="21.1.1" etag="vouuXLJN8lQo7cF8F3zU" type="github">
  <diagram name="第 1 页" id="oSzJWOyal7e8TBISS7ah">
    <mxGraphModel>
      <root>
        <mxCell id="0" />
        <mxCell id="1" parent="0" />
      </root>
    </mxGraphModel>
  </diagram>
</mxfile>
